<svg xmlns="http://www.w3.org/2000/svg" xmlns:xlink="http://www.w3.org/1999/xlink" width="2000" zoomAndPan="magnify" viewBox="0 0 1500 1499.999933" height="2000" preserveAspectRatio="xMidYMid meet" version="1.0"><defs><g/><clipPath id="b12c10107c"><rect x="0" width="1045" y="0" height="155"/></clipPath><clipPath id="93610f40ee"><path d="M 927 779 L 988 779 L 988 809 L 927 809 Z M 927 779 " clip-rule="nonzero"/></clipPath><clipPath id="7f1929b778"><path d="M 949.835938 741.554688 L 993.324219 785.042969 L 950.367188 828 L 906.878906 784.511719 Z M 949.835938 741.554688 " clip-rule="nonzero"/></clipPath><clipPath id="d98d1f9269"><path d="M 949.835938 741.554688 L 993.324219 785.042969 L 950.367188 828 L 906.878906 784.511719 Z M 949.835938 741.554688 " clip-rule="nonzero"/></clipPath><clipPath id="65c10bdde9"><path d="M 929 748 L 952 748 L 952 795 L 929 795 Z M 929 748 " clip-rule="nonzero"/></clipPath><clipPath id="3c2d02a5ba"><path d="M 949.835938 741.554688 L 993.324219 785.042969 L 950.367188 828 L 906.878906 784.511719 Z M 949.835938 741.554688 " clip-rule="nonzero"/></clipPath><clipPath id="2f6ac43d61"><path d="M 949.835938 741.554688 L 993.324219 785.042969 L 950.367188 828 L 906.878906 784.511719 Z M 949.835938 741.554688 " clip-rule="nonzero"/></clipPath><clipPath id="7e1afff649"><path d="M 951.664062 748.589844 C 949.195312 750.238281 948.105469 753.386719 948.105469 756.347656 C 948.105469 759.3125 949.011719 762.191406 949.765625 765.058594 C 950.515625 767.929688 951.117188 770.9375 950.492188 773.839844 C 949.953125 776.363281 948.515625 778.597656 946.914062 780.621094 C 944.972656 783.066406 942.628906 785.339844 939.859375 786.710938 C 940.597656 784.957031 941.128906 783.101562 941.488281 781.230469 C 942.199219 777.558594 942.316406 773.796875 942.425781 770.058594 C 942.554688 765.6875 942.6875 761.320312 942.816406 756.949219 C 940.894531 763.257812 940.984375 769.972656 940.1875 776.523438 C 939.390625 783.070312 937.460938 789.902344 932.535156 794.292969 C 934.703125 791.695312 934.660156 787.871094 933.714844 784.625 C 932.773438 781.375 931.0625 778.382812 930.195312 775.109375 C 928.574219 768.914062 930.28125 761.949219 934.59375 757.222656 C 938.960938 752.449219 945.394531 750.191406 951.664062 748.589844 Z M 951.664062 748.589844 " clip-rule="nonzero"/></clipPath><clipPath id="f18244e25f"><rect x="0" width="317" y="0" height="407"/></clipPath><linearGradient x1="-0.0000110889" gradientTransform="matrix(1, -0, 0, 1, 0.0000110889, 0.00000282946)" y1="2" x2="1416.53118" gradientUnits="userSpaceOnUse" y2="2" id="14fb854ea4"><stop stop-opacity="1" stop-color="rgb(34.118652%, 21.569824%, 5.099487%)" offset="0"/><stop stop-opacity="1" stop-color="rgb(34.376526%, 21.824646%, 5.215454%)" offset="0.00390625"/><stop stop-opacity="1" stop-color="rgb(34.634399%, 22.080994%, 5.331421%)" offset="0.0078125"/><stop stop-opacity="1" stop-color="rgb(34.890747%, 22.335815%, 5.447388%)" offset="0.0117188"/><stop stop-opacity="1" stop-color="rgb(35.148621%, 22.592163%, 5.56488%)" offset="0.015625"/><stop stop-opacity="1" stop-color="rgb(35.404968%, 22.848511%, 5.680847%)" offset="0.0195312"/><stop stop-opacity="1" stop-color="rgb(35.662842%, 23.104858%, 5.79834%)" offset="0.0234375"/><stop stop-opacity="1" stop-color="rgb(35.920715%, 23.35968%, 5.914307%)" offset="0.0273437"/><stop stop-opacity="1" stop-color="rgb(36.178589%, 23.616028%, 6.030273%)" offset="0.03125"/><stop stop-opacity="1" stop-color="rgb(36.434937%, 23.87085%, 6.14624%)" offset="0.0351562"/><stop stop-opacity="1" stop-color="rgb(36.69281%, 24.127197%, 6.263733%)" offset="0.0390625"/><stop stop-opacity="1" stop-color="rgb(36.949158%, 24.382019%, 6.3797%)" offset="0.0429687"/><stop stop-opacity="1" stop-color="rgb(37.207031%, 24.638367%, 6.495667%)" offset="0.046875"/><stop stop-opacity="1" stop-color="rgb(37.464905%, 24.894714%, 6.611633%)" offset="0.0507812"/><stop stop-opacity="1" stop-color="rgb(37.722778%, 25.151062%, 6.729126%)" offset="0.0546875"/><stop stop-opacity="1" stop-color="rgb(37.979126%, 25.405884%, 6.845093%)" offset="0.0585937"/><stop stop-opacity="1" stop-color="rgb(38.237%, 25.662231%, 6.96106%)" offset="0.0625"/><stop stop-opacity="1" stop-color="rgb(38.493347%, 25.917053%, 7.077026%)" offset="0.0664062"/><stop stop-opacity="1" stop-color="rgb(38.751221%, 26.173401%, 7.194519%)" offset="0.0703125"/><stop stop-opacity="1" stop-color="rgb(39.007568%, 26.429749%, 7.310486%)" offset="0.0742187"/><stop stop-opacity="1" stop-color="rgb(39.265442%, 26.686096%, 7.427979%)" offset="0.078125"/><stop stop-opacity="1" stop-color="rgb(39.523315%, 26.940918%, 7.543945%)" offset="0.0820312"/><stop stop-opacity="1" stop-color="rgb(39.781189%, 27.197266%, 7.659912%)" offset="0.0859375"/><stop stop-opacity="1" stop-color="rgb(40.037537%, 27.452087%, 7.775879%)" offset="0.0898438"/><stop stop-opacity="1" stop-color="rgb(40.29541%, 27.708435%, 7.893372%)" offset="0.09375"/><stop stop-opacity="1" stop-color="rgb(40.551758%, 27.964783%, 8.009338%)" offset="0.0976562"/><stop stop-opacity="1" stop-color="rgb(40.809631%, 28.22113%, 8.125305%)" offset="0.101562"/><stop stop-opacity="1" stop-color="rgb(41.067505%, 28.475952%, 8.241272%)" offset="0.105469"/><stop stop-opacity="1" stop-color="rgb(41.325378%, 28.7323%, 8.358765%)" offset="0.109375"/><stop stop-opacity="1" stop-color="rgb(41.581726%, 28.987122%, 8.474731%)" offset="0.113281"/><stop stop-opacity="1" stop-color="rgb(41.8396%, 29.243469%, 8.590698%)" offset="0.117187"/><stop stop-opacity="1" stop-color="rgb(42.095947%, 29.499817%, 8.706665%)" offset="0.121094"/><stop stop-opacity="1" stop-color="rgb(42.353821%, 29.756165%, 8.824158%)" offset="0.125"/><stop stop-opacity="1" stop-color="rgb(42.611694%, 30.010986%, 8.940125%)" offset="0.128906"/><stop stop-opacity="1" stop-color="rgb(42.869568%, 30.267334%, 9.057617%)" offset="0.132812"/><stop stop-opacity="1" stop-color="rgb(43.125916%, 30.522156%, 9.173584%)" offset="0.136719"/><stop stop-opacity="1" stop-color="rgb(43.383789%, 30.778503%, 9.289551%)" offset="0.140625"/><stop stop-opacity="1" stop-color="rgb(43.640137%, 31.033325%, 9.405518%)" offset="0.144531"/><stop stop-opacity="1" stop-color="rgb(43.89801%, 31.289673%, 9.52301%)" offset="0.148437"/><stop stop-opacity="1" stop-color="rgb(44.154358%, 31.546021%, 9.638977%)" offset="0.152344"/><stop stop-opacity="1" stop-color="rgb(44.412231%, 31.802368%, 9.754944%)" offset="0.15625"/><stop stop-opacity="1" stop-color="rgb(44.670105%, 32.05719%, 9.870911%)" offset="0.160156"/><stop stop-opacity="1" stop-color="rgb(44.927979%, 32.313538%, 9.988403%)" offset="0.164062"/><stop stop-opacity="1" stop-color="rgb(45.184326%, 32.568359%, 10.10437%)" offset="0.167969"/><stop stop-opacity="1" stop-color="rgb(45.4422%, 32.824707%, 10.221863%)" offset="0.171875"/><stop stop-opacity="1" stop-color="rgb(45.698547%, 33.081055%, 10.33783%)" offset="0.175781"/><stop stop-opacity="1" stop-color="rgb(45.956421%, 33.337402%, 10.453796%)" offset="0.179687"/><stop stop-opacity="1" stop-color="rgb(46.214294%, 33.592224%, 10.569763%)" offset="0.183594"/><stop stop-opacity="1" stop-color="rgb(46.472168%, 33.848572%, 10.687256%)" offset="0.1875"/><stop stop-opacity="1" stop-color="rgb(46.728516%, 34.103394%, 10.803223%)" offset="0.191406"/><stop stop-opacity="1" stop-color="rgb(46.986389%, 34.359741%, 10.919189%)" offset="0.195312"/><stop stop-opacity="1" stop-color="rgb(47.242737%, 34.616089%, 11.035156%)" offset="0.199219"/><stop stop-opacity="1" stop-color="rgb(47.50061%, 34.872437%, 11.152649%)" offset="0.203125"/><stop stop-opacity="1" stop-color="rgb(47.758484%, 35.127258%, 11.268616%)" offset="0.207031"/><stop stop-opacity="1" stop-color="rgb(48.016357%, 35.383606%, 11.384583%)" offset="0.210937"/><stop stop-opacity="1" stop-color="rgb(48.272705%, 35.638428%, 11.500549%)" offset="0.214844"/><stop stop-opacity="1" stop-color="rgb(48.530579%, 35.894775%, 11.618042%)" offset="0.21875"/><stop stop-opacity="1" stop-color="rgb(48.786926%, 36.151123%, 11.734009%)" offset="0.222656"/><stop stop-opacity="1" stop-color="rgb(49.0448%, 36.407471%, 11.851501%)" offset="0.226562"/><stop stop-opacity="1" stop-color="rgb(49.302673%, 36.662292%, 11.967468%)" offset="0.230469"/><stop stop-opacity="1" stop-color="rgb(49.560547%, 36.91864%, 12.083435%)" offset="0.234375"/><stop stop-opacity="1" stop-color="rgb(49.816895%, 37.173462%, 12.199402%)" offset="0.238281"/><stop stop-opacity="1" stop-color="rgb(50.074768%, 37.42981%, 12.316895%)" offset="0.242187"/><stop stop-opacity="1" stop-color="rgb(50.331116%, 37.684631%, 12.432861%)" offset="0.246094"/><stop stop-opacity="1" stop-color="rgb(50.588989%, 37.940979%, 12.548828%)" offset="0.25"/><stop stop-opacity="1" stop-color="rgb(50.845337%, 38.197327%, 12.664795%)" offset="0.253906"/><stop stop-opacity="1" stop-color="rgb(51.10321%, 38.453674%, 12.782288%)" offset="0.257812"/><stop stop-opacity="1" stop-color="rgb(51.361084%, 38.708496%, 12.898254%)" offset="0.261719"/><stop stop-opacity="1" stop-color="rgb(51.618958%, 38.964844%, 13.014221%)" offset="0.265625"/><stop stop-opacity="1" stop-color="rgb(51.875305%, 39.219666%, 13.130188%)" offset="0.269531"/><stop stop-opacity="1" stop-color="rgb(52.133179%, 39.476013%, 13.247681%)" offset="0.273438"/><stop stop-opacity="1" stop-color="rgb(52.389526%, 39.732361%, 13.363647%)" offset="0.277344"/><stop stop-opacity="1" stop-color="rgb(52.6474%, 39.988708%, 13.48114%)" offset="0.28125"/><stop stop-opacity="1" stop-color="rgb(52.905273%, 40.24353%, 13.597107%)" offset="0.285156"/><stop stop-opacity="1" stop-color="rgb(53.163147%, 40.499878%, 13.713074%)" offset="0.289062"/><stop stop-opacity="1" stop-color="rgb(53.419495%, 40.7547%, 13.829041%)" offset="0.292969"/><stop stop-opacity="1" stop-color="rgb(53.677368%, 41.011047%, 13.946533%)" offset="0.296875"/><stop stop-opacity="1" stop-color="rgb(53.933716%, 41.267395%, 14.0625%)" offset="0.300781"/><stop stop-opacity="1" stop-color="rgb(54.191589%, 41.523743%, 14.178467%)" offset="0.304688"/><stop stop-opacity="1" stop-color="rgb(54.449463%, 41.778564%, 14.294434%)" offset="0.308594"/><stop stop-opacity="1" stop-color="rgb(54.707336%, 42.034912%, 14.411926%)" offset="0.3125"/><stop stop-opacity="1" stop-color="rgb(54.963684%, 42.289734%, 14.527893%)" offset="0.316406"/><stop stop-opacity="1" stop-color="rgb(55.221558%, 42.546082%, 14.64386%)" offset="0.320312"/><stop stop-opacity="1" stop-color="rgb(55.477905%, 42.802429%, 14.759827%)" offset="0.324219"/><stop stop-opacity="1" stop-color="rgb(55.735779%, 43.058777%, 14.877319%)" offset="0.328125"/><stop stop-opacity="1" stop-color="rgb(55.993652%, 43.313599%, 14.993286%)" offset="0.332031"/><stop stop-opacity="1" stop-color="rgb(56.251526%, 43.569946%, 15.110779%)" offset="0.335938"/><stop stop-opacity="1" stop-color="rgb(56.507874%, 43.824768%, 15.226746%)" offset="0.339844"/><stop stop-opacity="1" stop-color="rgb(56.765747%, 44.081116%, 15.342712%)" offset="0.34375"/><stop stop-opacity="1" stop-color="rgb(57.022095%, 44.337463%, 15.458679%)" offset="0.347656"/><stop stop-opacity="1" stop-color="rgb(57.279968%, 44.593811%, 15.576172%)" offset="0.351562"/><stop stop-opacity="1" stop-color="rgb(57.536316%, 44.848633%, 15.692139%)" offset="0.355469"/><stop stop-opacity="1" stop-color="rgb(57.794189%, 45.10498%, 15.808105%)" offset="0.359375"/><stop stop-opacity="1" stop-color="rgb(58.052063%, 45.359802%, 15.924072%)" offset="0.363281"/><stop stop-opacity="1" stop-color="rgb(58.309937%, 45.61615%, 16.041565%)" offset="0.367188"/><stop stop-opacity="1" stop-color="rgb(58.566284%, 45.870972%, 16.157532%)" offset="0.371094"/><stop stop-opacity="1" stop-color="rgb(58.824158%, 46.127319%, 16.273499%)" offset="0.375"/><stop stop-opacity="1" stop-color="rgb(59.080505%, 46.383667%, 16.389465%)" offset="0.378906"/><stop stop-opacity="1" stop-color="rgb(59.338379%, 46.640015%, 16.506958%)" offset="0.382812"/><stop stop-opacity="1" stop-color="rgb(59.596252%, 46.894836%, 16.622925%)" offset="0.386719"/><stop stop-opacity="1" stop-color="rgb(59.854126%, 47.151184%, 16.740417%)" offset="0.390625"/><stop stop-opacity="1" stop-color="rgb(60.110474%, 47.406006%, 16.856384%)" offset="0.394531"/><stop stop-opacity="1" stop-color="rgb(60.368347%, 47.662354%, 16.972351%)" offset="0.398438"/><stop stop-opacity="1" stop-color="rgb(60.624695%, 47.918701%, 17.088318%)" offset="0.402344"/><stop stop-opacity="1" stop-color="rgb(60.882568%, 48.175049%, 17.205811%)" offset="0.40625"/><stop stop-opacity="1" stop-color="rgb(61.140442%, 48.429871%, 17.321777%)" offset="0.410156"/><stop stop-opacity="1" stop-color="rgb(61.398315%, 48.686218%, 17.437744%)" offset="0.414062"/><stop stop-opacity="1" stop-color="rgb(61.654663%, 48.94104%, 17.553711%)" offset="0.417969"/><stop stop-opacity="1" stop-color="rgb(61.912537%, 49.197388%, 17.671204%)" offset="0.421875"/><stop stop-opacity="1" stop-color="rgb(62.168884%, 49.453735%, 17.78717%)" offset="0.425781"/><stop stop-opacity="1" stop-color="rgb(62.426758%, 49.710083%, 17.904663%)" offset="0.429687"/><stop stop-opacity="1" stop-color="rgb(62.683105%, 49.964905%, 18.02063%)" offset="0.433594"/><stop stop-opacity="1" stop-color="rgb(62.940979%, 50.221252%, 18.136597%)" offset="0.4375"/><stop stop-opacity="1" stop-color="rgb(63.198853%, 50.476074%, 18.252563%)" offset="0.441406"/><stop stop-opacity="1" stop-color="rgb(63.456726%, 50.732422%, 18.370056%)" offset="0.445312"/><stop stop-opacity="1" stop-color="rgb(63.713074%, 50.98877%, 18.486023%)" offset="0.449219"/><stop stop-opacity="1" stop-color="rgb(63.970947%, 51.245117%, 18.60199%)" offset="0.453125"/><stop stop-opacity="1" stop-color="rgb(64.227295%, 51.499939%, 18.717957%)" offset="0.457031"/><stop stop-opacity="1" stop-color="rgb(64.485168%, 51.756287%, 18.835449%)" offset="0.460938"/><stop stop-opacity="1" stop-color="rgb(64.743042%, 52.011108%, 18.951416%)" offset="0.464844"/><stop stop-opacity="1" stop-color="rgb(65.000916%, 52.267456%, 19.067383%)" offset="0.46875"/><stop stop-opacity="1" stop-color="rgb(65.257263%, 52.522278%, 19.18335%)" offset="0.472656"/><stop stop-opacity="1" stop-color="rgb(65.515137%, 52.778625%, 19.300842%)" offset="0.476562"/><stop stop-opacity="1" stop-color="rgb(65.771484%, 53.034973%, 19.416809%)" offset="0.480469"/><stop stop-opacity="1" stop-color="rgb(66.029358%, 53.291321%, 19.534302%)" offset="0.484375"/><stop stop-opacity="1" stop-color="rgb(66.287231%, 53.546143%, 19.650269%)" offset="0.488281"/><stop stop-opacity="1" stop-color="rgb(66.545105%, 53.80249%, 19.766235%)" offset="0.492188"/><stop stop-opacity="1" stop-color="rgb(66.801453%, 54.057312%, 19.882202%)" offset="0.496094"/><stop stop-opacity="1" stop-color="rgb(67.059326%, 54.31366%, 19.999695%)" offset="0.5"/><stop stop-opacity="1" stop-color="rgb(67.315674%, 54.570007%, 20.115662%)" offset="0.503906"/><stop stop-opacity="1" stop-color="rgb(67.573547%, 54.826355%, 20.231628%)" offset="0.507812"/><stop stop-opacity="1" stop-color="rgb(67.831421%, 55.081177%, 20.347595%)" offset="0.511719"/><stop stop-opacity="1" stop-color="rgb(68.089294%, 55.337524%, 20.465088%)" offset="0.515625"/><stop stop-opacity="1" stop-color="rgb(68.345642%, 55.592346%, 20.581055%)" offset="0.519531"/><stop stop-opacity="1" stop-color="rgb(68.603516%, 55.848694%, 20.697021%)" offset="0.523438"/><stop stop-opacity="1" stop-color="rgb(68.859863%, 56.105042%, 20.812988%)" offset="0.527344"/><stop stop-opacity="1" stop-color="rgb(69.117737%, 56.361389%, 20.930481%)" offset="0.53125"/><stop stop-opacity="1" stop-color="rgb(69.374084%, 56.616211%, 21.046448%)" offset="0.535156"/><stop stop-opacity="1" stop-color="rgb(69.631958%, 56.872559%, 21.16394%)" offset="0.539063"/><stop stop-opacity="1" stop-color="rgb(69.889832%, 57.12738%, 21.279907%)" offset="0.542969"/><stop stop-opacity="1" stop-color="rgb(70.147705%, 57.383728%, 21.395874%)" offset="0.546875"/><stop stop-opacity="1" stop-color="rgb(70.404053%, 57.640076%, 21.511841%)" offset="0.550781"/><stop stop-opacity="1" stop-color="rgb(70.661926%, 57.896423%, 21.629333%)" offset="0.554688"/><stop stop-opacity="1" stop-color="rgb(70.918274%, 58.151245%, 21.7453%)" offset="0.558594"/><stop stop-opacity="1" stop-color="rgb(71.176147%, 58.407593%, 21.861267%)" offset="0.5625"/><stop stop-opacity="1" stop-color="rgb(71.434021%, 58.662415%, 21.977234%)" offset="0.566406"/><stop stop-opacity="1" stop-color="rgb(71.691895%, 58.918762%, 22.094727%)" offset="0.570312"/><stop stop-opacity="1" stop-color="rgb(71.948242%, 59.173584%, 22.210693%)" offset="0.574219"/><stop stop-opacity="1" stop-color="rgb(72.206116%, 59.429932%, 22.32666%)" offset="0.578125"/><stop stop-opacity="1" stop-color="rgb(72.462463%, 59.686279%, 22.442627%)" offset="0.582031"/><stop stop-opacity="1" stop-color="rgb(72.720337%, 59.942627%, 22.56012%)" offset="0.585938"/><stop stop-opacity="1" stop-color="rgb(72.97821%, 60.197449%, 22.676086%)" offset="0.589844"/><stop stop-opacity="1" stop-color="rgb(73.236084%, 60.453796%, 22.793579%)" offset="0.59375"/><stop stop-opacity="1" stop-color="rgb(73.492432%, 60.708618%, 22.909546%)" offset="0.597656"/><stop stop-opacity="1" stop-color="rgb(73.750305%, 60.964966%, 23.025513%)" offset="0.601562"/><stop stop-opacity="1" stop-color="rgb(74.006653%, 61.221313%, 23.141479%)" offset="0.605469"/><stop stop-opacity="1" stop-color="rgb(74.264526%, 61.477661%, 23.258972%)" offset="0.609375"/><stop stop-opacity="1" stop-color="rgb(74.5224%, 61.732483%, 23.374939%)" offset="0.613281"/><stop stop-opacity="1" stop-color="rgb(74.780273%, 61.988831%, 23.490906%)" offset="0.617188"/><stop stop-opacity="1" stop-color="rgb(75.036621%, 62.243652%, 23.606873%)" offset="0.621094"/><stop stop-opacity="1" stop-color="rgb(75.294495%, 62.5%, 23.724365%)" offset="0.625"/><stop stop-opacity="1" stop-color="rgb(75.550842%, 62.756348%, 23.840332%)" offset="0.628906"/><stop stop-opacity="1" stop-color="rgb(75.808716%, 63.012695%, 23.956299%)" offset="0.632812"/><stop stop-opacity="1" stop-color="rgb(76.065063%, 63.267517%, 24.072266%)" offset="0.636719"/><stop stop-opacity="1" stop-color="rgb(76.322937%, 63.523865%, 24.189758%)" offset="0.640625"/><stop stop-opacity="1" stop-color="rgb(76.580811%, 63.778687%, 24.305725%)" offset="0.644531"/><stop stop-opacity="1" stop-color="rgb(76.838684%, 64.035034%, 24.423218%)" offset="0.648438"/><stop stop-opacity="1" stop-color="rgb(77.095032%, 64.291382%, 24.539185%)" offset="0.652344"/><stop stop-opacity="1" stop-color="rgb(77.352905%, 64.547729%, 24.655151%)" offset="0.65625"/><stop stop-opacity="1" stop-color="rgb(77.609253%, 64.802551%, 24.771118%)" offset="0.660156"/><stop stop-opacity="1" stop-color="rgb(77.867126%, 65.058899%, 24.888611%)" offset="0.664062"/><stop stop-opacity="1" stop-color="rgb(78.125%, 65.313721%, 25.004578%)" offset="0.667969"/><stop stop-opacity="1" stop-color="rgb(78.382874%, 65.570068%, 25.120544%)" offset="0.671875"/><stop stop-opacity="1" stop-color="rgb(78.639221%, 65.82489%, 25.236511%)" offset="0.675781"/><stop stop-opacity="1" stop-color="rgb(78.897095%, 66.081238%, 25.354004%)" offset="0.679688"/><stop stop-opacity="1" stop-color="rgb(79.153442%, 66.337585%, 25.469971%)" offset="0.683594"/><stop stop-opacity="1" stop-color="rgb(79.411316%, 66.593933%, 25.587463%)" offset="0.6875"/><stop stop-opacity="1" stop-color="rgb(79.669189%, 66.848755%, 25.70343%)" offset="0.691406"/><stop stop-opacity="1" stop-color="rgb(79.927063%, 67.105103%, 25.819397%)" offset="0.695312"/><stop stop-opacity="1" stop-color="rgb(80.183411%, 67.359924%, 25.935364%)" offset="0.699219"/><stop stop-opacity="1" stop-color="rgb(80.441284%, 67.616272%, 26.052856%)" offset="0.703125"/><stop stop-opacity="1" stop-color="rgb(80.697632%, 67.87262%, 26.168823%)" offset="0.707031"/><stop stop-opacity="1" stop-color="rgb(80.955505%, 68.128967%, 26.28479%)" offset="0.710938"/><stop stop-opacity="1" stop-color="rgb(81.213379%, 68.383789%, 26.400757%)" offset="0.714844"/><stop stop-opacity="1" stop-color="rgb(81.471252%, 68.640137%, 26.51825%)" offset="0.71875"/><stop stop-opacity="1" stop-color="rgb(81.7276%, 68.894958%, 26.634216%)" offset="0.722656"/><stop stop-opacity="1" stop-color="rgb(81.985474%, 69.151306%, 26.750183%)" offset="0.726562"/><stop stop-opacity="1" stop-color="rgb(82.241821%, 69.407654%, 26.86615%)" offset="0.730469"/><stop stop-opacity="1" stop-color="rgb(82.499695%, 69.664001%, 26.983643%)" offset="0.734375"/><stop stop-opacity="1" stop-color="rgb(82.756042%, 69.918823%, 27.099609%)" offset="0.738281"/><stop stop-opacity="1" stop-color="rgb(83.013916%, 70.175171%, 27.217102%)" offset="0.742188"/><stop stop-opacity="1" stop-color="rgb(83.27179%, 70.429993%, 27.333069%)" offset="0.746094"/><stop stop-opacity="1" stop-color="rgb(83.529663%, 70.68634%, 27.449036%)" offset="0.75"/><stop stop-opacity="1" stop-color="rgb(83.786011%, 70.942688%, 27.565002%)" offset="0.753906"/><stop stop-opacity="1" stop-color="rgb(84.043884%, 71.199036%, 27.682495%)" offset="0.757812"/><stop stop-opacity="1" stop-color="rgb(84.300232%, 71.453857%, 27.798462%)" offset="0.761719"/><stop stop-opacity="1" stop-color="rgb(84.558105%, 71.710205%, 27.914429%)" offset="0.765625"/><stop stop-opacity="1" stop-color="rgb(84.815979%, 71.965027%, 28.030396%)" offset="0.769531"/><stop stop-opacity="1" stop-color="rgb(85.073853%, 72.221375%, 28.147888%)" offset="0.773438"/><stop stop-opacity="1" stop-color="rgb(85.3302%, 72.476196%, 28.263855%)" offset="0.777344"/><stop stop-opacity="1" stop-color="rgb(85.588074%, 72.732544%, 28.379822%)" offset="0.78125"/><stop stop-opacity="1" stop-color="rgb(85.844421%, 72.988892%, 28.495789%)" offset="0.785156"/><stop stop-opacity="1" stop-color="rgb(86.102295%, 73.245239%, 28.613281%)" offset="0.789062"/><stop stop-opacity="1" stop-color="rgb(86.360168%, 73.500061%, 28.729248%)" offset="0.792969"/><stop stop-opacity="1" stop-color="rgb(86.618042%, 73.756409%, 28.846741%)" offset="0.796875"/><stop stop-opacity="1" stop-color="rgb(86.87439%, 74.01123%, 28.962708%)" offset="0.800781"/><stop stop-opacity="1" stop-color="rgb(87.132263%, 74.267578%, 29.078674%)" offset="0.804687"/><stop stop-opacity="1" stop-color="rgb(87.388611%, 74.523926%, 29.194641%)" offset="0.808594"/><stop stop-opacity="1" stop-color="rgb(87.646484%, 74.780273%, 29.312134%)" offset="0.8125"/><stop stop-opacity="1" stop-color="rgb(87.902832%, 75.035095%, 29.428101%)" offset="0.816406"/><stop stop-opacity="1" stop-color="rgb(88.160706%, 75.291443%, 29.544067%)" offset="0.820312"/><stop stop-opacity="1" stop-color="rgb(88.418579%, 75.546265%, 29.660034%)" offset="0.824219"/><stop stop-opacity="1" stop-color="rgb(88.676453%, 75.802612%, 29.777527%)" offset="0.828125"/><stop stop-opacity="1" stop-color="rgb(88.9328%, 76.05896%, 29.893494%)" offset="0.832031"/><stop stop-opacity="1" stop-color="rgb(89.190674%, 76.315308%, 30.00946%)" offset="0.835937"/><stop stop-opacity="1" stop-color="rgb(89.447021%, 76.570129%, 30.125427%)" offset="0.839844"/><stop stop-opacity="1" stop-color="rgb(89.704895%, 76.826477%, 30.24292%)" offset="0.84375"/><stop stop-opacity="1" stop-color="rgb(89.962769%, 77.081299%, 30.358887%)" offset="0.847656"/><stop stop-opacity="1" stop-color="rgb(90.220642%, 77.337646%, 30.476379%)" offset="0.851562"/><stop stop-opacity="1" stop-color="rgb(90.47699%, 77.593994%, 30.592346%)" offset="0.855469"/><stop stop-opacity="1" stop-color="rgb(90.734863%, 77.850342%, 30.708313%)" offset="0.859375"/><stop stop-opacity="1" stop-color="rgb(90.991211%, 78.105164%, 30.82428%)" offset="0.863281"/><stop stop-opacity="1" stop-color="rgb(91.249084%, 78.361511%, 30.941772%)" offset="0.867188"/><stop stop-opacity="1" stop-color="rgb(91.506958%, 78.616333%, 31.057739%)" offset="0.871094"/><stop stop-opacity="1" stop-color="rgb(91.764832%, 78.872681%, 31.173706%)" offset="0.875"/><stop stop-opacity="1" stop-color="rgb(92.021179%, 79.129028%, 31.289673%)" offset="0.878906"/><stop stop-opacity="1" stop-color="rgb(92.279053%, 79.385376%, 31.407166%)" offset="0.882812"/><stop stop-opacity="1" stop-color="rgb(92.5354%, 79.640198%, 31.523132%)" offset="0.886719"/><stop stop-opacity="1" stop-color="rgb(92.793274%, 79.896545%, 31.640625%)" offset="0.890625"/><stop stop-opacity="1" stop-color="rgb(93.051147%, 80.151367%, 31.756592%)" offset="0.894531"/><stop stop-opacity="1" stop-color="rgb(93.309021%, 80.407715%, 31.872559%)" offset="0.898438"/><stop stop-opacity="1" stop-color="rgb(93.565369%, 80.662537%, 31.988525%)" offset="0.902344"/><stop stop-opacity="1" stop-color="rgb(93.823242%, 80.918884%, 32.106018%)" offset="0.90625"/><stop stop-opacity="1" stop-color="rgb(94.07959%, 81.175232%, 32.221985%)" offset="0.910156"/><stop stop-opacity="1" stop-color="rgb(94.337463%, 81.43158%, 32.337952%)" offset="0.914062"/><stop stop-opacity="1" stop-color="rgb(94.593811%, 81.686401%, 32.453918%)" offset="0.917969"/><stop stop-opacity="1" stop-color="rgb(94.851685%, 81.942749%, 32.571411%)" offset="0.921875"/><stop stop-opacity="1" stop-color="rgb(95.109558%, 82.197571%, 32.687378%)" offset="0.925781"/><stop stop-opacity="1" stop-color="rgb(95.367432%, 82.453918%, 32.803345%)" offset="0.929688"/><stop stop-opacity="1" stop-color="rgb(95.623779%, 82.710266%, 32.919312%)" offset="0.933594"/><stop stop-opacity="1" stop-color="rgb(95.881653%, 82.966614%, 33.036804%)" offset="0.9375"/><stop stop-opacity="1" stop-color="rgb(96.138%, 83.221436%, 33.152771%)" offset="0.941406"/><stop stop-opacity="1" stop-color="rgb(96.395874%, 83.477783%, 33.270264%)" offset="0.945312"/><stop stop-opacity="1" stop-color="rgb(96.653748%, 83.732605%, 33.38623%)" offset="0.949219"/><stop stop-opacity="1" stop-color="rgb(96.911621%, 83.988953%, 33.502197%)" offset="0.953125"/><stop stop-opacity="1" stop-color="rgb(97.167969%, 84.2453%, 33.618164%)" offset="0.957031"/><stop stop-opacity="1" stop-color="rgb(97.425842%, 84.501648%, 33.735657%)" offset="0.960938"/><stop stop-opacity="1" stop-color="rgb(97.68219%, 84.75647%, 33.851624%)" offset="0.964844"/><stop stop-opacity="1" stop-color="rgb(97.940063%, 85.012817%, 33.96759%)" offset="0.96875"/><stop stop-opacity="1" stop-color="rgb(98.197937%, 85.267639%, 34.083557%)" offset="0.972656"/><stop stop-opacity="1" stop-color="rgb(98.455811%, 85.523987%, 34.20105%)" offset="0.976562"/><stop stop-opacity="1" stop-color="rgb(98.712158%, 85.780334%, 34.317017%)" offset="0.980469"/><stop stop-opacity="1" stop-color="rgb(98.970032%, 86.036682%, 34.432983%)" offset="0.984375"/><stop stop-opacity="1" stop-color="rgb(99.226379%, 86.291504%, 34.54895%)" offset="0.988281"/><stop stop-opacity="1" stop-color="rgb(99.484253%, 86.547852%, 34.666443%)" offset="0.992188"/><stop stop-opacity="1" stop-color="rgb(99.742126%, 86.802673%, 34.78241%)" offset="0.996094"/><stop stop-opacity="1" stop-color="rgb(100%, 87.059021%, 34.899902%)" offset="1"/></linearGradient><clipPath id="ca52e522d2"><rect x="0" width="614" y="0" height="56"/></clipPath></defs><rect x="-150" width="1800" fill="#ffffff" y="-149.999993" height="1799.99992" fill-opacity="1"/><rect x="-150" width="1800" fill="#ffffff" y="-149.999993" height="1799.99992" fill-opacity="1"/><g transform="matrix(1, 0, 0, 1, 235, 819)"><g clip-path="url(#b12c10107c)"><g fill="#053545" fill-opacity="1"><g transform="translate(0.865531, 109.580088)"><g><path d="M 30.40625 -1.140625 L 31.890625 -1.140625 L 31.890625 0 L 6.859375 0 L 6.859375 -1.140625 L 8.34375 -1.140625 C 10.320312 -1.140625 12.015625 -1.84375 13.421875 -3.25 C 14.835938 -4.664062 15.582031 -6.363281 15.65625 -8.34375 L 15.65625 -71.765625 C 15.582031 -73.742188 14.835938 -75.421875 13.421875 -76.796875 C 12.015625 -78.171875 10.320312 -78.859375 8.34375 -78.859375 L 6.859375 -78.859375 L 6.859375 -80 L 31.890625 -80 L 31.890625 -78.859375 L 30.40625 -78.859375 C 28.414062 -78.859375 26.71875 -78.171875 25.3125 -76.796875 C 23.90625 -75.421875 23.160156 -73.742188 23.078125 -71.765625 L 23.078125 -8.34375 C 23.078125 -6.363281 23.800781 -4.664062 25.25 -3.25 C 26.695312 -1.84375 28.414062 -1.140625 30.40625 -1.140625 Z M 76.34375 0 L 71.421875 0 C 63.648438 0 57.9375 -2.171875 54.28125 -6.515625 L 26.734375 -39.765625 L 53.71875 -73.59375 C 54.320312 -74.351562 54.625 -75.035156 54.625 -75.640625 C 54.625 -76.253906 54.507812 -76.789062 54.28125 -77.25 C 53.675781 -78.394531 52.570312 -78.96875 50.96875 -78.96875 L 49.828125 -78.96875 L 49.828125 -80 L 73.9375 -80 L 73.9375 -78.96875 L 73.484375 -78.96875 C 68.453125 -78.96875 64.335938 -77.175781 61.140625 -73.59375 L 34.28125 -42.515625 L 65.484375 -5.828125 C 68.523438 -2.773438 72.144531 -1.210938 76.34375 -1.140625 Z M 76.34375 0 "/></g></g></g><g fill="#053545" fill-opacity="1"><g transform="translate(89.189841, 109.580088)"><g><path d="M 81.828125 -1.140625 L 82.734375 -1.140625 L 82.734375 0 L 57.015625 0 L 57.015625 -1.140625 L 58.046875 -1.140625 C 59.648438 -1.140625 60.847656 -1.65625 61.640625 -2.6875 C 62.441406 -3.71875 62.84375 -4.6875 62.84375 -5.59375 C 62.84375 -6.507812 62.691406 -7.425781 62.390625 -8.34375 L 55.078125 -27.765625 L 24.21875 -27.765625 L 16.5625 -8.234375 C 16.257812 -7.316406 16.109375 -6.421875 16.109375 -5.546875 C 16.109375 -4.671875 16.507812 -3.71875 17.3125 -2.6875 C 18.113281 -1.65625 19.3125 -1.140625 20.90625 -1.140625 L 21.9375 -1.140625 L 21.9375 0 L -1.03125 0 L -1.03125 -1.140625 L 0 -1.140625 C 1.90625 -1.140625 3.769531 -1.75 5.59375 -2.96875 C 7.425781 -4.1875 8.910156 -5.976562 10.046875 -8.34375 L 35.875 -69.828125 C 38.695312 -75.992188 40.109375 -79.914062 40.109375 -81.59375 L 41.140625 -81.59375 L 71.765625 -8.34375 C 72.828125 -5.976562 74.269531 -4.1875 76.09375 -2.96875 C 77.925781 -1.75 79.835938 -1.140625 81.828125 -1.140625 Z M 25.59375 -31.203125 L 53.703125 -31.203125 L 40 -67.890625 Z M 25.59375 -31.203125 "/></g></g></g><g fill="#053545" fill-opacity="1"><g transform="translate(183.798125, 109.580088)"><g><path d="M 30.40625 -76.453125 L 23.078125 -76.453125 L 23.078125 -8.34375 C 23.078125 -6.363281 23.78125 -4.664062 25.1875 -3.25 C 26.601562 -1.84375 28.34375 -1.140625 30.40625 -1.140625 L 31.765625 -1.140625 L 31.890625 0 L 6.859375 0 L 6.859375 -1.140625 L 8.34375 -1.140625 C 10.320312 -1.140625 12.015625 -1.820312 13.421875 -3.1875 C 14.835938 -4.5625 15.582031 -6.242188 15.65625 -8.234375 L 15.65625 -71.65625 C 15.582031 -73.632812 14.835938 -75.328125 13.421875 -76.734375 C 12.015625 -78.148438 10.320312 -78.859375 8.34375 -78.859375 L 6.859375 -78.859375 L 6.859375 -80 L 37.71875 -80 C 44.644531 -80 50.085938 -78.070312 54.046875 -74.21875 C 58.015625 -70.375 60 -65.382812 60 -59.25 C 60 -53.125 58.113281 -47.832031 54.34375 -43.375 C 50.570312 -38.914062 45.976562 -36.6875 40.5625 -36.6875 C 41.707031 -36.15625 43.0625 -35.109375 44.625 -33.546875 C 46.1875 -31.984375 47.578125 -30.363281 48.796875 -28.6875 C 55.347656 -19.3125 59.613281 -13.535156 61.59375 -11.359375 C 63.570312 -9.191406 64.976562 -7.707031 65.8125 -6.90625 C 66.65625 -6.113281 67.570312 -5.332031 68.5625 -4.5625 C 69.550781 -3.800781 70.546875 -3.195312 71.546875 -2.75 C 73.753906 -1.675781 76.113281 -1.140625 78.625 -1.140625 L 78.625 0 L 72.34375 0 C 69.0625 0 66.007812 -0.585938 63.1875 -1.765625 C 60.375 -2.953125 58.257812 -4.171875 56.84375 -5.421875 C 55.4375 -6.679688 54.21875 -7.898438 53.1875 -9.078125 C 52.164062 -10.265625 49.332031 -14.207031 44.6875 -20.90625 C 40.039062 -27.613281 37.332031 -31.441406 36.5625 -32.390625 C 35.800781 -33.347656 35.003906 -34.285156 34.171875 -35.203125 C 31.734375 -37.785156 29.296875 -39.078125 26.859375 -39.078125 L 26.859375 -40.234375 C 27.460938 -40.148438 28.257812 -40.109375 29.25 -40.109375 C 30.238281 -40.109375 31.457031 -40.148438 32.90625 -40.234375 C 42.351562 -40.453125 48.296875 -44.410156 50.734375 -52.109375 C 51.191406 -53.628906 51.421875 -55.054688 51.421875 -56.390625 C 51.421875 -57.722656 51.421875 -58.582031 51.421875 -58.96875 C 51.273438 -64.070312 49.941406 -68.1875 47.421875 -71.3125 C 44.910156 -74.4375 41.519531 -76.113281 37.25 -76.34375 C 35.425781 -76.414062 33.144531 -76.453125 30.40625 -76.453125 Z M 30.40625 -76.453125 "/></g></g></g><g fill="#053545" fill-opacity="1"><g transform="translate(274.407485, 109.580088)"><g><path d="M 8.34375 -1.140625 C 10.320312 -1.140625 12.015625 -1.84375 13.421875 -3.25 C 14.835938 -4.664062 15.582031 -6.363281 15.65625 -8.34375 L 15.65625 -72.34375 C 15.425781 -74.164062 14.625 -75.707031 13.25 -76.96875 C 11.882812 -78.226562 10.25 -78.859375 8.34375 -78.859375 L 6.96875 -78.859375 L 6.859375 -80 L 40.34375 -80 C 42.707031 -80 45.273438 -80.226562 48.046875 -80.6875 C 50.828125 -81.144531 52.789062 -81.597656 53.9375 -82.046875 L 53.9375 -67.65625 L 52.796875 -67.65625 L 52.796875 -69.71875 C 52.796875 -71.539062 52.164062 -73.097656 50.90625 -74.390625 C 49.65625 -75.691406 48.148438 -76.378906 46.390625 -76.453125 L 23.078125 -76.453125 L 23.078125 -41.140625 L 42.390625 -41.140625 C 43.921875 -41.210938 45.21875 -41.78125 46.28125 -42.84375 C 47.351562 -43.914062 47.890625 -45.253906 47.890625 -46.859375 L 47.890625 -48.453125 L 49.03125 -48.453125 L 49.03125 -30.40625 L 47.890625 -30.40625 L 47.890625 -32.109375 C 47.890625 -33.640625 47.375 -34.9375 46.34375 -36 C 45.3125 -37.0625 44.035156 -37.632812 42.515625 -37.71875 L 23.078125 -37.71875 L 23.078125 -3.546875 L 39.421875 -3.546875 C 45.066406 -3.546875 49.375 -4.800781 52.34375 -7.3125 C 55.3125 -9.820312 57.785156 -13.554688 59.765625 -18.515625 L 60.90625 -18.515625 L 54.28125 0 L 6.859375 0 L 6.859375 -1.140625 Z M 8.34375 -1.140625 "/></g></g></g><g fill="#053545" fill-opacity="1"><g transform="translate(353.591459, 109.580088)"><g><path d="M 88.90625 -78.859375 C 87 -78.859375 85.359375 -78.191406 83.984375 -76.859375 C 82.617188 -75.523438 81.898438 -73.90625 81.828125 -72 L 81.828125 -13.03125 C 81.828125 -8.613281 82.09375 -4.421875 82.625 -0.453125 L 82.859375 1.59375 L 81.828125 1.59375 L 19.546875 -64.90625 L 19.546875 -8 C 19.617188 -5.332031 20.796875 -3.351562 23.078125 -2.0625 C 24.148438 -1.445312 25.296875 -1.140625 26.515625 -1.140625 L 28.6875 -1.140625 L 28.6875 0 L 5.140625 0 L 5.140625 -1.140625 L 7.3125 -1.140625 C 9.21875 -1.140625 10.851562 -1.804688 12.21875 -3.140625 C 13.59375 -4.472656 14.28125 -6.128906 14.28125 -8.109375 L 14.28125 -67.421875 C 14.28125 -72.066406 14.015625 -76.21875 13.484375 -79.875 L 13.25 -81.71875 L 14.40625 -81.71875 L 76.6875 -15.203125 L 76.6875 -71.890625 C 76.601562 -73.867188 75.875 -75.523438 74.5 -76.859375 C 73.132812 -78.191406 71.5 -78.859375 69.59375 -78.859375 L 67.421875 -78.859375 L 67.421875 -80 L 90.96875 -80 L 90.96875 -78.859375 Z M 88.90625 -78.859375 "/></g></g></g><g fill="#053545" fill-opacity="1"><g transform="translate(462.93844, 109.580088)"><g/></g></g><g fill="#053545" fill-opacity="1"><g transform="translate(504.76146, 109.580088)"><g><path d="M 47.65625 1.59375 C 35.613281 1.519531 25.800781 -2.320312 18.21875 -9.9375 C 10.644531 -17.5625 6.859375 -27.597656 6.859375 -40.046875 C 6.859375 -52.503906 10.644531 -62.539062 18.21875 -70.15625 C 25.800781 -77.78125 35.84375 -81.59375 48.34375 -81.59375 C 58.550781 -81.59375 67.578125 -79.003906 75.421875 -73.828125 L 77.71875 -57.71875 L 76.6875 -57.71875 C 75.007812 -64.269531 71.617188 -69.316406 66.515625 -72.859375 C 61.410156 -76.398438 55.351562 -78.171875 48.34375 -78.171875 C 38.363281 -78.171875 30.378906 -74.703125 24.390625 -67.765625 C 18.410156 -60.835938 15.421875 -51.65625 15.421875 -40.21875 C 15.421875 -28.789062 18.375 -19.59375 24.28125 -12.625 C 30.1875 -5.65625 37.976562 -2.054688 47.65625 -1.828125 C 56.1875 -1.828125 63.3125 -4.148438 69.03125 -8.796875 C 75.195312 -13.828125 78.925781 -22.019531 80.21875 -33.375 L 81.140625 -33.375 L 79.765625 -15.421875 C 72.835938 -4.078125 62.132812 1.59375 47.65625 1.59375 Z M 47.65625 1.59375 "/></g></g></g><g fill="#053545" fill-opacity="1"><g transform="translate(604.853886, 109.580088)"><g><path d="M 81.828125 -1.140625 L 82.734375 -1.140625 L 82.734375 0 L 57.015625 0 L 57.015625 -1.140625 L 58.046875 -1.140625 C 59.648438 -1.140625 60.847656 -1.65625 61.640625 -2.6875 C 62.441406 -3.71875 62.84375 -4.6875 62.84375 -5.59375 C 62.84375 -6.507812 62.691406 -7.425781 62.390625 -8.34375 L 55.078125 -27.765625 L 24.21875 -27.765625 L 16.5625 -8.234375 C 16.257812 -7.316406 16.109375 -6.421875 16.109375 -5.546875 C 16.109375 -4.671875 16.507812 -3.71875 17.3125 -2.6875 C 18.113281 -1.65625 19.3125 -1.140625 20.90625 -1.140625 L 21.9375 -1.140625 L 21.9375 0 L -1.03125 0 L -1.03125 -1.140625 L 0 -1.140625 C 1.90625 -1.140625 3.769531 -1.75 5.59375 -2.96875 C 7.425781 -4.1875 8.910156 -5.976562 10.046875 -8.34375 L 35.875 -69.828125 C 38.695312 -75.992188 40.109375 -79.914062 40.109375 -81.59375 L 41.140625 -81.59375 L 71.765625 -8.34375 C 72.828125 -5.976562 74.269531 -4.1875 76.09375 -2.96875 C 77.925781 -1.75 79.835938 -1.140625 81.828125 -1.140625 Z M 25.59375 -31.203125 L 53.703125 -31.203125 L 40 -67.890625 Z M 25.59375 -31.203125 "/></g></g></g><g fill="#053545" fill-opacity="1"><g transform="translate(699.462169, 109.580088)"><g><path d="M 34.734375 0 L 6.859375 0 L 6.96875 -1.140625 L 8.34375 -1.140625 C 10.320312 -1.140625 12.015625 -1.820312 13.421875 -3.1875 C 14.835938 -4.5625 15.582031 -6.242188 15.65625 -8.234375 L 15.65625 -71.765625 C 15.65625 -73.742188 14.929688 -75.421875 13.484375 -76.796875 C 12.035156 -78.171875 10.320312 -78.859375 8.34375 -78.859375 L 6.96875 -78.859375 L 6.859375 -80 L 29.59375 -80 C 37.445312 -80 43.539062 -78.265625 47.875 -74.796875 C 52.21875 -71.328125 54.390625 -66.695312 54.390625 -60.90625 C 54.390625 -56.34375 53.171875 -52.554688 50.734375 -49.546875 C 48.296875 -46.535156 45.328125 -44.535156 41.828125 -43.546875 C 47.847656 -42.628906 52.609375 -40.148438 56.109375 -36.109375 C 59.617188 -32.078125 61.375 -26.992188 61.375 -20.859375 C 61.375 -14.722656 59.03125 -9.710938 54.34375 -5.828125 C 49.65625 -1.941406 43.117188 0 34.734375 0 Z M 23.078125 -4.109375 L 34.28125 -4.109375 C 34.363281 -4.109375 34.441406 -4.109375 34.515625 -4.109375 C 40.304688 -4.109375 44.800781 -5.6875 48 -8.84375 C 51.195312 -12.007812 52.796875 -16.488281 52.796875 -22.28125 C 52.796875 -25.5625 52.242188 -28.4375 51.140625 -30.90625 C 50.035156 -33.382812 48.644531 -35.347656 46.96875 -36.796875 C 42.550781 -40.453125 35.921875 -42.28125 27.078125 -42.28125 C 27.078125 -42.28125 27.039062 -42.28125 26.96875 -42.28125 L 26.96875 -43.3125 C 27.039062 -43.3125 27.398438 -43.3125 28.046875 -43.3125 C 28.703125 -43.3125 29.640625 -43.382812 30.859375 -43.53125 C 32.078125 -43.6875 33.445312 -43.953125 34.96875 -44.328125 C 36.488281 -44.710938 37.859375 -45.320312 39.078125 -46.15625 C 40.296875 -47 41.441406 -47.992188 42.515625 -49.140625 C 44.722656 -51.648438 45.828125 -55.398438 45.828125 -60.390625 C 45.828125 -65.390625 44.394531 -69.296875 41.53125 -72.109375 C 38.675781 -74.929688 34.546875 -76.34375 29.140625 -76.34375 L 23.078125 -76.34375 Z M 23.078125 -4.109375 "/></g></g></g><g fill="#053545" fill-opacity="1"><g transform="translate(779.674487, 109.580088)"><g><path d="M 30.40625 -76.453125 L 23.078125 -76.453125 L 23.078125 -8.34375 C 23.078125 -6.363281 23.78125 -4.664062 25.1875 -3.25 C 26.601562 -1.84375 28.34375 -1.140625 30.40625 -1.140625 L 31.765625 -1.140625 L 31.890625 0 L 6.859375 0 L 6.859375 -1.140625 L 8.34375 -1.140625 C 10.320312 -1.140625 12.015625 -1.820312 13.421875 -3.1875 C 14.835938 -4.5625 15.582031 -6.242188 15.65625 -8.234375 L 15.65625 -71.65625 C 15.582031 -73.632812 14.835938 -75.328125 13.421875 -76.734375 C 12.015625 -78.148438 10.320312 -78.859375 8.34375 -78.859375 L 6.859375 -78.859375 L 6.859375 -80 L 37.71875 -80 C 44.644531 -80 50.085938 -78.070312 54.046875 -74.21875 C 58.015625 -70.375 60 -65.382812 60 -59.25 C 60 -53.125 58.113281 -47.832031 54.34375 -43.375 C 50.570312 -38.914062 45.976562 -36.6875 40.5625 -36.6875 C 41.707031 -36.15625 43.0625 -35.109375 44.625 -33.546875 C 46.1875 -31.984375 47.578125 -30.363281 48.796875 -28.6875 C 55.347656 -19.3125 59.613281 -13.535156 61.59375 -11.359375 C 63.570312 -9.191406 64.976562 -7.707031 65.8125 -6.90625 C 66.65625 -6.113281 67.570312 -5.332031 68.5625 -4.5625 C 69.550781 -3.800781 70.546875 -3.195312 71.546875 -2.75 C 73.753906 -1.675781 76.113281 -1.140625 78.625 -1.140625 L 78.625 0 L 72.34375 0 C 69.0625 0 66.007812 -0.585938 63.1875 -1.765625 C 60.375 -2.953125 58.257812 -4.171875 56.84375 -5.421875 C 55.4375 -6.679688 54.21875 -7.898438 53.1875 -9.078125 C 52.164062 -10.265625 49.332031 -14.207031 44.6875 -20.90625 C 40.039062 -27.613281 37.332031 -31.441406 36.5625 -32.390625 C 35.800781 -33.347656 35.003906 -34.285156 34.171875 -35.203125 C 31.734375 -37.785156 29.296875 -39.078125 26.859375 -39.078125 L 26.859375 -40.234375 C 27.460938 -40.148438 28.257812 -40.109375 29.25 -40.109375 C 30.238281 -40.109375 31.457031 -40.148438 32.90625 -40.234375 C 42.351562 -40.453125 48.296875 -44.410156 50.734375 -52.109375 C 51.191406 -53.628906 51.421875 -55.054688 51.421875 -56.390625 C 51.421875 -57.722656 51.421875 -58.582031 51.421875 -58.96875 C 51.273438 -64.070312 49.941406 -68.1875 47.421875 -71.3125 C 44.910156 -74.4375 41.519531 -76.113281 37.25 -76.34375 C 35.425781 -76.414062 33.144531 -76.453125 30.40625 -76.453125 Z M 30.40625 -76.453125 "/></g></g></g><g fill="#053545" fill-opacity="1"><g transform="translate(870.283847, 109.580088)"><g><path d="M 81.828125 -1.140625 L 82.734375 -1.140625 L 82.734375 0 L 57.015625 0 L 57.015625 -1.140625 L 58.046875 -1.140625 C 59.648438 -1.140625 60.847656 -1.65625 61.640625 -2.6875 C 62.441406 -3.71875 62.84375 -4.6875 62.84375 -5.59375 C 62.84375 -6.507812 62.691406 -7.425781 62.390625 -8.34375 L 55.078125 -27.765625 L 24.21875 -27.765625 L 16.5625 -8.234375 C 16.257812 -7.316406 16.109375 -6.421875 16.109375 -5.546875 C 16.109375 -4.671875 16.507812 -3.71875 17.3125 -2.6875 C 18.113281 -1.65625 19.3125 -1.140625 20.90625 -1.140625 L 21.9375 -1.140625 L 21.9375 0 L -1.03125 0 L -1.03125 -1.140625 L 0 -1.140625 C 1.90625 -1.140625 3.769531 -1.75 5.59375 -2.96875 C 7.425781 -4.1875 8.910156 -5.976562 10.046875 -8.34375 L 35.875 -69.828125 C 38.695312 -75.992188 40.109375 -79.914062 40.109375 -81.59375 L 41.140625 -81.59375 L 71.765625 -8.34375 C 72.828125 -5.976562 74.269531 -4.1875 76.09375 -2.96875 C 77.925781 -1.75 79.835938 -1.140625 81.828125 -1.140625 Z M 25.59375 -31.203125 L 53.703125 -31.203125 L 40 -67.890625 Z M 25.59375 -31.203125 "/></g></g></g><g fill="#053545" fill-opacity="1"><g transform="translate(964.892131, 109.580088)"><g><path d="M 8.34375 -1.140625 C 10.320312 -1.140625 12.015625 -1.84375 13.421875 -3.25 C 14.835938 -4.664062 15.582031 -6.363281 15.65625 -8.34375 L 15.65625 -71.65625 C 15.582031 -73.632812 14.835938 -75.328125 13.421875 -76.734375 C 12.015625 -78.148438 10.320312 -78.859375 8.34375 -78.859375 L 6.859375 -78.859375 L 6.859375 -80 L 31.890625 -80 L 31.890625 -78.859375 L 30.40625 -78.859375 C 27.65625 -78.859375 25.554688 -77.675781 24.109375 -75.3125 C 23.421875 -74.164062 23.078125 -72.945312 23.078125 -71.65625 L 23.078125 -3.546875 L 39.421875 -3.546875 C 45.066406 -3.546875 49.375 -4.800781 52.34375 -7.3125 C 55.3125 -9.820312 57.785156 -13.554688 59.765625 -18.515625 L 60.90625 -18.515625 L 54.28125 0 L 6.859375 0 L 6.859375 -1.140625 Z M 8.34375 -1.140625 "/></g></g></g></g></g><g clip-path="url(#93610f40ee)"><g clip-path="url(#7f1929b778)"><g clip-path="url(#d98d1f9269)"><path fill="#053545" d="M 987.667969 779.386719 C 985.496094 782.644531 981.339844 784.085938 977.429688 784.085938 C 973.515625 784.089844 969.71875 782.886719 965.933594 781.898438 C 962.148438 780.902344 958.171875 780.109375 954.347656 780.9375 C 951.019531 781.652344 948.0625 783.542969 945.398438 785.660156 C 942.152344 788.222656 939.15625 791.3125 937.347656 794.964844 C 939.664062 793.988281 942.117188 793.289062 944.582031 792.8125 C 949.433594 791.867188 954.398438 791.71875 959.335938 791.570312 C 965.105469 791.398438 970.871094 791.226562 976.640625 791.054688 C 968.3125 793.585938 959.445312 793.476562 950.804688 794.527344 C 942.164062 795.582031 933.140625 798.132812 927.347656 804.632812 C 930.773438 801.769531 935.824219 801.824219 940.113281 803.074219 C 944.402344 804.324219 948.355469 806.578125 952.671875 807.71875 C 960.835938 809.875 970.03125 807.617188 976.269531 801.917969 C 982.578125 796.15625 985.5625 787.664062 987.667969 779.386719 Z M 987.667969 779.386719 " fill-opacity="1" fill-rule="nonzero"/></g></g></g><g clip-path="url(#65c10bdde9)"><g clip-path="url(#3c2d02a5ba)"><g clip-path="url(#2f6ac43d61)"><g clip-path="url(#7e1afff649)"><path fill="#f3f3f2" d="M 974.515625 771.441406 L 940.117188 805.835938 L 905.722656 771.441406 L 940.117188 737.042969 Z M 974.515625 771.441406 " fill-opacity="1" fill-rule="nonzero"/></g></g></g></g><g fill="#053545" fill-opacity="1"><g transform="translate(553.429786, 781.390165)"><g><path d="M 116.171875 -4.375 L 121.84375 -4.375 L 121.84375 0 L 26.203125 0 L 26.203125 -4.375 L 31.875 -4.375 C 39.445312 -4.375 45.925781 -7.066406 51.3125 -12.453125 C 56.695312 -17.835938 59.535156 -24.3125 59.828125 -31.875 L 59.828125 -274.265625 C 59.535156 -281.835938 56.695312 -288.242188 51.3125 -293.484375 C 45.925781 -298.722656 39.445312 -301.34375 31.875 -301.34375 L 26.203125 -301.34375 L 26.203125 -305.71875 L 121.84375 -305.71875 L 121.84375 -301.34375 L 116.171875 -301.34375 C 108.597656 -301.34375 102.117188 -298.722656 96.734375 -293.484375 C 91.347656 -288.242188 88.507812 -281.835938 88.21875 -274.265625 L 88.21875 -31.875 C 88.21875 -24.3125 90.984375 -17.835938 96.515625 -12.453125 C 102.046875 -7.066406 108.597656 -4.375 116.171875 -4.375 Z M 291.734375 0 L 272.953125 0 C 243.253906 0 221.421875 -8.296875 207.453125 -24.890625 L 102.203125 -151.984375 L 205.265625 -281.25 C 207.597656 -284.164062 208.765625 -286.785156 208.765625 -289.109375 C 208.765625 -291.441406 208.328125 -293.484375 207.453125 -295.234375 C 205.117188 -299.597656 200.894531 -301.78125 194.78125 -301.78125 L 190.421875 -301.78125 L 190.421875 -305.71875 L 282.5625 -305.71875 L 282.5625 -301.78125 L 280.8125 -301.78125 C 261.601562 -301.78125 245.882812 -294.9375 233.65625 -281.25 L 131.015625 -162.46875 L 250.25 -22.28125 C 261.894531 -10.625 275.722656 -4.65625 291.734375 -4.375 Z M 291.734375 0 "/></g></g></g><g transform="matrix(1, 0, 0, 1, 659, 525)"><g clip-path="url(#f18244e25f)"><g fill="#053545" fill-opacity="1"><g transform="translate(0.834449, 293.605307)"><g><path d="M 240.40625 -105.875 C 240.40625 -71.289062 231.101562 -44.296875 212.5 -24.890625 C 193.90625 -5.484375 167.613281 4.21875 133.625 4.21875 C 110.695312 4.21875 90.035156 -0.601562 71.640625 -10.25 C 53.242188 -19.90625 38.96875 -33.078125 28.8125 -49.765625 C 18.65625 -66.460938 13.578125 -85.113281 13.578125 -105.71875 C 13.578125 -126.332031 18.601562 -144.984375 28.65625 -161.671875 C 38.707031 -178.367188 52.582031 -191.492188 70.28125 -201.046875 C 87.976562 -210.597656 107.6875 -215.375 129.40625 -215.375 C 143.082031 -215.375 157.007812 -213.507812 171.1875 -209.78125 C 185.363281 -206.0625 197.175781 -201.085938 206.625 -194.859375 L 212.65625 -152.328125 L 209.9375 -152.328125 C 205.71875 -169.222656 195.96875 -182.445312 180.6875 -192 C 165.40625 -201.550781 148.410156 -206.328125 129.703125 -206.328125 C 102.960938 -206.328125 80.691406 -196.820312 62.890625 -177.8125 C 45.097656 -158.8125 36.203125 -134.929688 36.203125 -106.171875 C 36.203125 -77.421875 45.398438 -53.34375 63.796875 -33.9375 C 82.191406 -14.53125 106.269531 -4.828125 136.03125 -4.828125 C 165.800781 -4.828125 190.085938 -14.476562 208.890625 -33.78125 C 227.691406 -53.082031 237.09375 -79.523438 237.09375 -113.109375 L 240.109375 -113.109375 C 240.304688 -110.703125 240.40625 -108.289062 240.40625 -105.875 Z M 240.40625 -105.875 "/></g></g></g></g></g><path stroke-linecap="round" transform="matrix(0.75, 0.000000000000000241, -0.000000000000000241, 0.75, 218.800795, 962.930105)" fill="none" stroke-linejoin="miter" d="M 1.999981 1.999443 L 1414.531353 1.999443 " stroke="url(#14fb854ea4)" stroke-width="4" stroke-miterlimit="4"/><g transform="matrix(1, 0, 0, 1, 451, 980)"><g clip-path="url(#ca52e522d2)"><g fill="#053545" fill-opacity="1"><g transform="translate(1.741427, 43.49866)"><g><path d="M 34.046875 -34.5625 L 34.046875 0 L 29.5 0 L 8.140625 -29.1875 L 8.140625 0 L 4.234375 0 L 4.234375 -34.5625 L 8.765625 -34.5625 L 30.125 -5.484375 L 30.125 -34.5625 Z M 34.046875 -34.5625 "/></g></g></g><g fill="#053545" fill-opacity="1"><g transform="translate(57.341238, 43.49866)"><g><path d="M 33.21875 -34.5625 L 33.21875 -14.875 C 33.21875 -10.28125 31.847656 -6.582031 29.109375 -3.78125 C 26.378906 -0.976562 22.835938 0.421875 18.484375 0.421875 C 14.171875 0.421875 10.644531 -0.976562 7.90625 -3.78125 C 5.175781 -6.582031 3.8125 -10.28125 3.8125 -14.875 L 3.8125 -34.5625 L 7.734375 -34.5625 L 7.734375 -14.78125 C 7.734375 -11.050781 8.847656 -8.144531 11.078125 -6.0625 C 12.984375 -4.28125 15.453125 -3.390625 18.484375 -3.390625 C 21.515625 -3.390625 24.003906 -4.28125 25.953125 -6.0625 C 28.179688 -8.113281 29.296875 -11.019531 29.296875 -14.78125 L 29.296875 -34.5625 Z M 33.21875 -34.5625 "/></g></g></g><g fill="#053545" fill-opacity="1"><g transform="translate(111.688483, 43.49866)"><g><path d="M 28.765625 -30.8125 L 16.703125 -30.8125 L 16.703125 0 L 12.796875 0 L 12.796875 -30.8125 L 0.734375 -30.8125 L 0.734375 -34.5625 L 28.765625 -34.5625 Z M 28.765625 -30.8125 "/></g></g></g><g fill="#053545" fill-opacity="1"><g transform="translate(158.520486, 43.49866)"><g><path d="M 8.140625 0 L 4.234375 0 L 4.234375 -34.5625 L 20.78125 -34.5625 C 24.300781 -34.5625 27.125 -33.585938 29.25 -31.640625 C 31.363281 -29.722656 32.421875 -27.097656 32.421875 -23.765625 C 32.421875 -19.441406 30.628906 -16.5 27.046875 -14.9375 C 26.035156 -14.476562 25.046875 -14.144531 24.078125 -13.9375 L 33.15625 0 L 28.515625 0 L 20.15625 -13.265625 L 8.140625 -13.265625 Z M 8.140625 -16.96875 L 20.109375 -16.96875 C 23.796875 -16.96875 26.335938 -18.117188 27.734375 -20.421875 C 28.253906 -21.285156 28.515625 -22.398438 28.515625 -23.765625 C 28.515625 -25.953125 27.765625 -27.679688 26.265625 -28.953125 C 24.765625 -30.222656 22.78125 -30.859375 20.3125 -30.859375 L 8.140625 -30.859375 Z M 8.140625 -16.96875 "/></g></g></g><g fill="#053545" fill-opacity="1"><g transform="translate(210.780171, 43.49866)"><g><path d="M 8.140625 0 L 4.234375 0 L 4.234375 -34.5625 L 8.140625 -34.5625 Z M 8.140625 0 "/></g></g></g><g fill="#053545" fill-opacity="1"><g transform="translate(240.494039, 43.49866)"><g><path d="M 19.640625 -3.390625 C 22.109375 -3.390625 24.269531 -4.015625 26.125 -5.265625 C 27.988281 -6.523438 29.375 -8.21875 30.28125 -10.34375 L 34.40625 -10.34375 C 33.257812 -7.070312 31.363281 -4.492188 28.71875 -2.609375 C 25.894531 -0.585938 22.570312 0.421875 18.75 0.421875 C 13.695312 0.421875 9.601562 -1.300781 6.46875 -4.75 C 3.507812 -8.0625 2.03125 -12.238281 2.03125 -17.28125 C 2.03125 -22.332031 3.507812 -26.507812 6.46875 -29.8125 C 9.601562 -33.257812 13.695312 -34.984375 18.75 -34.984375 C 22.570312 -34.984375 25.894531 -33.972656 28.71875 -31.953125 C 31.363281 -30.078125 33.257812 -27.503906 34.40625 -24.234375 L 30.28125 -24.234375 C 29.375 -26.359375 27.988281 -28.046875 26.125 -29.296875 C 24.269531 -30.546875 22.101562 -31.171875 19.625 -31.171875 C 17.15625 -31.171875 15.101562 -30.8125 13.46875 -30.09375 C 11.832031 -29.382812 10.457031 -28.40625 9.34375 -27.15625 C 7.082031 -24.613281 5.953125 -21.320312 5.953125 -17.28125 C 5.953125 -13.25 7.082031 -9.960938 9.34375 -7.421875 C 11.707031 -4.734375 15.140625 -3.390625 19.640625 -3.390625 Z M 19.640625 -3.390625 "/></g></g></g><g fill="#053545" fill-opacity="1"><g transform="translate(293.849701, 43.49866)"><g><path d="M 8.140625 0 L 4.234375 0 L 4.234375 -34.5625 L 8.140625 -34.5625 Z M 8.140625 0 "/></g></g></g><g fill="#053545" fill-opacity="1"><g transform="translate(323.563568, 43.49866)"><g><path d="M 19.578125 -34.984375 C 24.734375 -34.984375 28.960938 -33.257812 32.265625 -29.8125 C 35.503906 -26.46875 37.125 -22.289062 37.125 -17.28125 C 37.125 -12.269531 35.503906 -8.09375 32.265625 -4.75 C 28.960938 -1.300781 24.734375 0.421875 19.578125 0.421875 C 14.429688 0.421875 10.203125 -1.300781 6.890625 -4.75 C 3.648438 -8.09375 2.03125 -12.269531 2.03125 -17.28125 C 2.03125 -22.289062 3.648438 -26.46875 6.890625 -29.8125 C 10.203125 -33.257812 14.429688 -34.984375 19.578125 -34.984375 Z M 19.578125 -3.390625 C 23.691406 -3.390625 27.019531 -4.734375 29.5625 -7.421875 C 32 -9.992188 33.21875 -13.28125 33.21875 -17.28125 C 33.21875 -21.289062 32 -24.582031 29.5625 -27.15625 C 27.019531 -29.832031 23.691406 -31.171875 19.578125 -31.171875 C 15.472656 -31.171875 12.148438 -29.832031 9.609375 -27.15625 C 7.171875 -24.582031 5.953125 -21.289062 5.953125 -17.28125 C 5.953125 -13.28125 7.171875 -9.992188 9.609375 -7.421875 C 12.148438 -4.734375 15.472656 -3.390625 19.578125 -3.390625 Z M 19.578125 -3.390625 "/></g></g></g><g fill="#053545" fill-opacity="1"><g transform="translate(380.050614, 43.49866)"><g><path d="M 34.046875 -34.5625 L 34.046875 0 L 29.5 0 L 8.140625 -29.1875 L 8.140625 0 L 4.234375 0 L 4.234375 -34.5625 L 8.765625 -34.5625 L 30.125 -5.484375 L 30.125 -34.5625 Z M 34.046875 -34.5625 "/></g></g></g><g fill="#053545" fill-opacity="1"><g transform="translate(435.650425, 43.49866)"><g><path d="M 8.140625 0 L 4.234375 0 L 4.234375 -34.5625 L 8.140625 -34.5625 Z M 8.140625 0 "/></g></g></g><g fill="#053545" fill-opacity="1"><g transform="translate(465.364292, 43.49866)"><g><path d="M 8.1875 -29.265625 C 7.53125 -28.691406 7.085938 -28.054688 6.859375 -27.359375 C 6.640625 -26.660156 6.53125 -25.921875 6.53125 -25.140625 C 6.53125 -24.359375 6.867188 -23.632812 7.546875 -22.96875 C 8.222656 -22.3125 9.117188 -21.753906 10.234375 -21.296875 C 11.347656 -20.847656 12.617188 -20.445312 14.046875 -20.09375 C 15.472656 -19.75 16.925781 -19.394531 18.40625 -19.03125 C 19.882812 -18.664062 21.335938 -18.25 22.765625 -17.78125 C 24.191406 -17.3125 25.460938 -16.710938 26.578125 -15.984375 C 29.046875 -14.410156 30.28125 -12.269531 30.28125 -9.5625 C 30.28125 -6.320312 29.070312 -3.847656 26.65625 -2.140625 C 24.238281 -0.429688 20.890625 0.421875 16.609375 0.421875 C 11.765625 0.421875 8.070312 -0.585938 5.53125 -2.609375 C 3.269531 -4.421875 1.984375 -7 1.671875 -10.34375 L 5.75 -10.34375 C 5.882812 -7.96875 7.03125 -6.15625 9.1875 -4.90625 C 11.070312 -3.832031 13.5625 -3.296875 16.65625 -3.296875 C 23.132812 -3.296875 26.375 -5.332031 26.375 -9.40625 C 26.375 -10.789062 25.789062 -11.882812 24.625 -12.6875 C 23.457031 -13.488281 21.992188 -14.148438 20.234375 -14.671875 C 18.472656 -15.191406 16.570312 -15.675781 14.53125 -16.125 C 12.5 -16.582031 10.601562 -17.164062 8.84375 -17.875 C 7.09375 -18.59375 5.632812 -19.535156 4.46875 -20.703125 C 3.300781 -21.867188 2.71875 -23.445312 2.71875 -25.4375 C 2.71875 -28.25 3.796875 -30.539062 5.953125 -32.3125 C 8.109375 -34.09375 11.363281 -34.984375 15.71875 -34.984375 C 20.101562 -34.984375 23.5 -33.972656 25.90625 -31.953125 C 28.09375 -30.179688 29.257812 -27.898438 29.40625 -25.109375 L 25.375 -25.109375 C 25.03125 -27.972656 23.1875 -29.875 19.84375 -30.8125 C 18.65625 -31.15625 17.179688 -31.328125 15.421875 -31.328125 C 13.671875 -31.328125 12.191406 -31.125 10.984375 -30.71875 C 9.785156 -30.320312 8.851562 -29.835938 8.1875 -29.265625 Z M 8.1875 -29.265625 "/></g></g></g><g fill="#053545" fill-opacity="1"><g transform="translate(514.805766, 43.49866)"><g><path d="M 28.765625 -30.8125 L 16.703125 -30.8125 L 16.703125 0 L 12.796875 0 L 12.796875 -30.8125 L 0.734375 -30.8125 L 0.734375 -34.5625 L 28.765625 -34.5625 Z M 28.765625 -30.8125 "/></g></g></g><g fill="#053545" fill-opacity="1"><g transform="translate(561.637769, 43.49866)"><g><path d="M 34.40625 0 L 30.078125 0 L 25.84375 -10.03125 L 8.71875 -10.03125 L 4.484375 0 L 0.15625 0 L 14.828125 -34.5625 L 19.734375 -34.5625 Z M 24.328125 -13.625 L 17.28125 -30.5 L 10.234375 -13.625 Z M 24.328125 -13.625 "/></g></g></g></g></g></svg>