<?xml version="1.0" encoding="UTF-8" standalone="no"?>
<svg
   width="160mm"
   height="160mm"
   viewBox="0 0 160 160"
   version="1.1"
   xmlns="http://www.w3.org/2000/svg"><defs><clipPath
       id="f18244e25f"><rect
         x="0"
         width="317"
         y="0"
         height="407" /></clipPath></defs><circle
     cx="80"
     cy="80"
     r="80"
     fill="#053545" /><g
     transform="translate(-21.487851,-32.884242)"><g
       transform="matrix(0.35277779,0,0,0.35277779,-159.54376,-116.15207)"><g
         fill="#ffffff"
         fill-opacity="1"><g
           transform="translate(553.42979,781.39017)"><g><path
               d="m 116.17188,-4.375 h 5.67187 V 0 H 26.203125 V -4.375 H 31.875 c 7.570312,0 14.050781,-2.691406 19.4375,-8.078125 5.382812,-5.382813 8.222656,-11.859375 8.515625,-19.421875 v -242.39062 c -0.292969,-7.57032 -3.132813,-13.97657 -8.515625,-19.21875 -5.386719,-5.23829 -11.867188,-7.85938 -19.4375,-7.85938 h -5.671875 v -4.375 h 95.640625 v 4.375 h -5.67187 c -7.57422,0 -14.05469,2.62109 -19.437505,7.85938 -5.386719,5.24218 -8.226563,11.64843 -8.515625,19.21875 V -31.875 c 0,7.5625 2.765625,14.039062 8.296875,19.421875 C 102.04688,-7.066406 108.59766,-4.375 116.17188,-4.375 Z M 291.73437,0 h -18.78125 c -29.69921,0 -51.53125,-8.296875 -65.5,-24.890625 L 102.20313,-151.98437 205.26562,-281.25 c 2.33204,-2.91406 3.5,-5.53516 3.5,-7.85937 0,-2.33204 -0.4375,-4.375 -1.3125,-6.125 -2.33593,-4.36329 -6.55859,-6.54688 -12.67187,-6.54688 h -4.35938 v -3.9375 h 92.14063 v 3.9375 h -1.75 c -19.21094,0 -34.92969,6.84375 -47.15625,20.53125 L 131.01562,-162.46875 250.25,-22.28125 c 11.64453,11.65625 25.47266,17.625 41.48437,17.90625 z m 0,0" /></g></g></g><g
         transform="translate(659,525)"><g
           clip-path="url(#f18244e25f)"><g
             fill="#ffffff"
             fill-opacity="1"><g
               transform="translate(0.834449,293.60531)"><g><path
                   d="m 240.40625,-105.875 c 0,34.585938 -9.30469,61.578125 -27.90625,80.984375 C 193.90625,-5.484375 167.61328,4.21875 133.625,4.21875 110.69531,4.21875 90.035156,-0.601562 71.640625,-10.25 53.242188,-19.90625 38.96875,-33.078125 28.8125,-49.765625 18.65625,-66.460938 13.578125,-85.113281 13.578125,-105.71875 c 0,-20.61328 5.023437,-39.26562 15.078125,-55.95312 10.050781,-16.69532 23.925781,-29.82032 41.625,-39.375 17.695312,-9.55079 37.40625,-14.32813 59.125,-14.32813 13.67578,0 27.60156,1.86719 41.78125,5.59375 14.17578,3.71875 25.98828,8.69531 35.4375,14.92188 l 6.03125,42.53125 h -2.71875 c -4.21875,-16.89454 -13.96875,-30.11719 -29.25,-39.67188 -15.28125,-9.55078 -32.27734,-14.32812 -50.98438,-14.32812 -26.74218,0 -49.011714,9.50781 -66.812495,28.51562 -17.792969,19 -26.6875,42.88281 -26.6875,71.64062 0,28.750005 9.195313,52.82813 27.59375,72.23438 18.394531,19.40625 42.472655,29.109375 72.234375,29.109375 29.76953,0 54.05469,-9.648437 72.85937,-28.953125 18.80079,-19.300781 28.20313,-45.742188 28.20313,-79.32813 h 3.01562 c 0.19532,2.40625 0.29688,4.82032 0.29688,7.23438 z m 0,0" /></g></g></g></g></g></g></g></svg>
